<svg width="84" height="68" viewBox="0 0 84 68" fill="none" xmlns="http://www.w3.org/2000/svg">
<g clip-path="url(#clip0_102_89)">
<path d="M8.66665 67.3333C6.37498 67.3333 4.41387 66.518 2.78331 64.8875C1.14998 63.2542 0.333313 61.2917 0.333313 59V8.99999C0.333313 6.70832 1.14998 4.74721 2.78331 3.11666C4.41387 1.48332 6.37498 0.666656 8.66665 0.666656H75.3333C77.625 0.666656 79.5875 1.48332 81.2208 3.11666C82.8514 4.74721 83.6666 6.70832 83.6666 8.99999V59C83.6666 61.2917 82.8514 63.2542 81.2208 64.8875C79.5875 66.518 77.625 67.3333 75.3333 67.3333H8.66665ZM8.66665 59H75.3333V17.3333H8.66665V59ZM23.25 54.8333L17.4166 49L28.1458 38.1667L17.3125 27.3333L23.25 21.5L39.9166 38.1667L23.25 54.8333ZM42 54.8333V46.5H67V54.8333H42Z" fill="black"/>
</g>
<defs>
<clipPath id="clip0_102_89">
<rect width="84" height="68" fill="white"/>
</clipPath>
</defs>
</svg>
